
        <svg xmlns="http://www.w3.org/2000/svg" xmlns:xlink="http://www.w3.org/1999/xlink" version="1.1" width="3187.5" 
        height="1379.6021438337407" viewBox="0 0 3187.5 1379.6021438337407">
			
			<g transform="scale(9.375) translate(10, 10)">
				<defs id="SvgjsDefs1317"></defs><g id="SvgjsG1318" featureKey="nameFeature-0" transform="matrix(2.970233603909037,0,0,2.970233603909037,-5.799414706689445,-30.979492073046586)" fill="#111111"><path d="M36.777 20.723 q0 2.36328125 -0.8984375 4.228515625 t-2.5391 3.1641 t-3.9258 1.9922 t-5.0391 0.69336 q-0.33203125 0 -0.576171875 -0.185546875 t-0.24414 -0.55664 q0 -0.29296875 0.21484375 -0.5078125 t0.52734 -0.21484 q2.4609375 0 4.4921875 -0.56640625 t3.4766 -1.6699 t2.2461 -2.7051 t0.80078 -3.6914 t-0.92773 -3.7305 t-2.5977 -2.7734 t-3.9844 -1.7188 t-5.0879 -0.58594 q-2.6171875 0 -5.068359375 0.4296875 t-4.5996 1.2109 t-3.916 1.875 t-3.0273 2.4023 t-1.9629 2.8027 t-0.70313 3.0957 q0 1.40625 0.48828125 2.4609375 t1.2988 1.7676 t1.8652 1.0645 t2.207 0.35156 q1.3671875 0 2.431640625 -0.29296875 t1.7969 -0.64453 t1.123 -0.6543 t0.42969 -0.3418 q0.21484375 -0.21484375 0.5078125 -0.21484375 t0.51758 0.22461 t0.22461 0.53711 t-0.23438 0.50781 l-0.48828 0.41016 q-0.46875 0.37109375 -1.337890625 0.810546875 t-2.1191 0.79102 t-2.8516 0.35156 q-1.46484375 0 -2.802734375 -0.48828125 t-2.3438 -1.416 t-1.6016 -2.2461 t-0.5957 -2.9785 q0 -1.81640625 0.751953125 -3.505859375 t2.1094 -3.1641 t3.252 -2.6953 t4.1992 -2.0898 t4.9414 -1.3477 t5.4688 -0.47852 q3.10546875 0 5.703125 0.703125 t4.4629 2.0313 t2.9004 3.2324 t1.0352 4.3262 z M25.176 16.074 q0.29296875 0 0.517578125 0.205078125 t0.22461 0.53711 q0 0.1953125 -0.107421875 0.3515625 t-0.26367 0.29297 q-1.09375 0.859375 -1.748046875 1.85546875 t-0.99609 2.1387 t-0.44922 2.4316 t-0.10742 2.6953 l0 2.4609 q0 2.421875 -0.4296875 4.599609375 t-1.4551 3.8184 t-2.7441 2.6074 t-4.3164 0.9668 q-1.171875 0 -2.294921875 -0.283203125 t-2.1191 -0.82031 t-1.8359 -1.3184 t-1.4453 -1.7578 l-0.078125 -0.19531 q-0.0390625 -0.09765625 -0.0390625 -0.1953125 q0 -0.2734375 0.205078125 -0.498046875 t0.53711 -0.22461 q0.1953125 0 0.361328125 0.107421875 t0.2832 0.26367 q1.25 1.73828125 2.83203125 2.607421875 t3.5938 0.86914 q2.3046875 0 3.759765625 -0.849609375 t2.2852 -2.3242 t1.1328 -3.4473 t0.30273 -4.1992 l0 -2.4805 q0 -1.30859375 0.1171875 -2.705078125 t0.53711 -2.7344 t1.2109 -2.5391 t2.1387 -2.1191 q0.078125 -0.0390625 0.1953125 -0.078125 t0.19531 -0.039063 z M40.44918125 37.8516 q0.41015625 0.56640625 1.0546875 0.908203125 t1.5918 0.3418 t1.7285 -0.45898 t1.4258 -1.2012 t1.1523 -1.6602 t0.91797 -1.8359 q0.09765625 -0.21484375 0.2734375 -0.322265625 t0.39063 -0.10742 q0.33203125 0 0.537109375 0.234375 t0.20508 0.50781 q0 0.09765625 -0.01953125 0.166015625 t-0.058594 0.14648 q-1.34765625 2.96875 -2.939453125 4.47265625 t-3.6035 1.543 q-1.2890625 0 -2.2265625 -0.498046875 t-1.543 -1.2891 t-0.89844 -1.7871 t-0.29297 -1.9922 t0.24414 -1.8359 t0.70313 -1.4648 t1.0938 -0.97656 t1.3965 -0.35156 q0.44921875 0 0.888671875 0.185546875 t0.79102 0.52734 t0.56641 0.83008 t0.21484 1.1133 q0 0.80078125 -0.2734375 1.50390625 t-0.75195 1.3086 t-1.1426 1.1133 t-1.4258 0.87891 z M39.86328125 36.582 q0.60546875 -0.25390625 1.103515625 -0.64453125 t0.84961 -0.85938 t0.54688 -0.98633 t0.19531 -1.0449 q0 -0.5859375 -0.29296875 -0.888671875 t-0.68359 -0.30273 q-0.52734375 0 -0.8984375 0.29296875 t-0.60547 0.76172 t-0.3418 1.0449 t-0.10742 1.1426 q0 0.3515625 0.068359375 0.7421875 t0.16602 0.74219 z M63.418125 34.5508 q-0.078125 0.15625 -0.322265625 0.654296875 t-0.625 1.1426 t-0.88867 1.3477 t-1.1328 1.2891 t-1.3477 0.9668 t-1.5234 0.38086 q-1.1328125 0 -1.904296875 -0.72265625 t-1.123 -1.8164 q-0.6640625 1.11328125 -1.58203125 1.767578125 t-1.8359 0.6543 q-0.72265625 0 -1.30859375 -0.263671875 t-0.99609 -0.74219 t-0.63477 -1.123 t-0.22461 -1.4063 q0 -1.5234375 0.517578125 -2.685546875 t1.3184 -1.9434 t1.7676 -1.1719 t1.8652 -0.39063 q0.60546875 0 1.11328125 0.166015625 t0.86914 0.36133 t0.55664 0.35156 l0.21484 0.19531 q0.21484375 0.25390625 0.21484375 0.537109375 t-0.21484 0.50781 t-0.51758 0.22461 t-0.51758 -0.21484 l-0.17578 -0.15625 q-0.13671875 -0.09765625 -0.37109375 -0.21484375 t-0.55664 -0.20508 t-0.73242 -0.087891 q-0.60546875 0 -1.2890625 0.2734375 t-1.25 0.84961 t-0.94727 1.4453 t-0.38086 2.0605 q0 0.37109375 0.078125 0.751953125 t0.27344 0.69336 t0.52734 0.50781 t0.82031 0.19531 q0.3515625 0 0.810546875 -0.234375 t0.87891 -0.72266 t0.76172 -1.2305 t0.47852 -1.7578 q0.0390625 -0.2734375 0.25390625 -0.458984375 t0.49805 -0.18555 t0.48828 0.21484 t0.22461 0.48828 q0.01953125 0.37109375 0.078125 1.044921875 t0.26367 1.3379 t0.61523 1.1523 t1.1328 0.48828 q0.46875 0 0.927734375 -0.25390625 t0.89844 -0.67383 t0.83984 -0.95703 t0.73242 -1.084 t0.58594 -1.0547 l0.42969 -0.87891 q0.09765625 -0.21484375 0.283203125 -0.33203125 t0.40039 -0.11719 q0.33203125 0 0.537109375 0.244140625 t0.20508 0.51758 q0 0.13671875 -0.05859375 0.2734375 z M66.406225 38.2422 q0.3125 -0.64453125 0.72265625 -1.416015625 t0.87891 -1.5625 t0.98633 -1.5723 t1.084 -1.4746 t1.1426 -0.99609 t1.084 -0.30273 q1.015625 0 1.50390625 0.7421875 t0.48828 1.8359 q0 0.25390625 -0.01953125 0.60546875 l-0.11719 1.6016 q-0.0390625 0.4296875 -0.0390625 0.80078125 q0 0.46875 0.048828125 0.8984375 t0.18555 0.75195 t0.39063 0.50781 t0.66406 0.18555 q0.7421875 0 1.4453125 -0.576171875 t1.2988 -1.3672 t1.0352 -1.6113 t0.6543 -1.3281 q0.09765625 -0.21484375 0.283203125 -0.33203125 t0.40039 -0.11719 q0.33203125 0 0.537109375 0.244140625 t0.20508 0.51758 q0 0.13671875 -0.05859375 0.2734375 l-0.3125 0.64453 q-0.234375 0.48828125 -0.615234375 1.123046875 t-0.88867 1.3477 t-1.123 1.2988 t-1.3281 0.97656 t-1.4941 0.39063 q-0.87890625 0 -1.42578125 -0.341796875 t-0.85938 -0.89844 t-0.41992 -1.2305 t-0.10742 -1.3574 q0 -0.29296875 0.029296875 -0.6640625 t0.078125 -0.78125 t0.078125 -0.82031 t0.029297 -0.78125 q0 -0.625 -0.1953125 -0.849609375 t-0.35156 -0.22461 q-0.3125 0 -0.712890625 0.361328125 t-0.83984 0.94727 t-0.89844 1.3184 t-0.85938 1.4551 t-0.74219 1.377 t-0.53711 1.084 q-0.390625 0.8203125 -0.78125 1.103515625 t-0.80078 0.2832 q-0.56640625 0 -0.908203125 -0.341796875 t-0.3418 -0.9668 q0 -0.13671875 0.0390625 -0.546875 l0.33203 -3.4375 q0.05859375 -0.625 0.09765625 -1.171875 t0.039063 -0.91797 q0 -0.48828125 -0.0390625 -0.9375 t-0.15625 -0.54688 q-0.17578125 0.05859375 -0.625 0.732421875 t-1.1523 2.373 q-0.09765625 0.21484375 -0.29296875 0.33203125 t-0.41016 0.11719 q-0.33203125 0 -0.52734375 -0.224609375 t-0.19531 -0.51758 q0 -0.13671875 0.05859375 -0.29296875 q0.87890625 -2.08984375 1.650390625 -3.076171875 t1.5332 -0.98633 q0.44921875 0 0.76171875 0.224609375 t0.49805 0.5957 t0.27344 0.82031 t0.087891 0.91797 q0 0.3515625 -0.048828125 1.09375 t-0.12695 1.582 l-0.13672 1.6992 q-0.078125 0.83984375 -0.13671875 1.40625 z M86.34769375 37.8125 q-0.68359375 1.11328125 -1.591796875 1.7578125 t-1.8262 0.64453 q-0.7421875 0 -1.328125 -0.2734375 t-1.0156 -0.77148 t-0.6543 -1.2012 t-0.22461 -1.582 q0 -1.3671875 0.263671875 -2.421875 t0.57617 -1.7676 t0.58594 -1.084 l0.27344 -0.37109 q0.09765625 -0.1171875 0.244140625 -0.17578125 t0.30273 -0.058594 q0.3125 0 0.517578125 0.224609375 t0.20508 0.51758 q0 0.1171875 -0.0390625 0.234375 l-0.11719 0.23438 l-0.3125 0.52734 q-0.21484375 0.37109375 -0.44921875 0.95703125 t-0.41016 1.377 t-0.17578 1.8066 q0 1.15234375 0.458984375 1.748046875 t1.2988 0.5957 q0.3515625 0 0.810546875 -0.224609375 t0.89844 -0.69336 t0.77148 -1.1914 t0.42969 -1.6992 l0.29297 -3.3594 q0.0390625 -0.29296875 0.25390625 -0.48828125 t0.52734 -0.19531 t0.50781 0.24414 t0.19531 0.55664 l-0.25391 3.2422 q-0.0390625 0.41015625 0.029296875 1.07421875 t0.2832 1.3086 t0.64453 1.1035 t1.1328 0.45898 q0.5078125 0 0.99609375 -0.263671875 t0.9375 -0.69336 t0.83008 -0.9668 t0.70313 -1.084 t0.55664 -1.0547 l0.39063 -0.83984 q0.09765625 -0.21484375 0.2734375 -0.33203125 t0.39063 -0.11719 q0.3515625 0 0.546875 0.234375 t0.19531 0.50781 q0 0.15625 -0.05859375 0.29296875 l-0.29297 0.64453 q-0.234375 0.5078125 -0.595703125 1.142578125 t-0.86914 1.3379 t-1.1328 1.2988 t-1.3574 0.97656 t-1.5723 0.38086 q-1.15234375 0 -1.9140625 -0.654296875 t-1.1328 -1.8652 z M109.688 20.449 q0 0.3125 -0.21484375 0.498046875 t-0.52734 0.18555 l-9.9023 0 l0 0.21484 q0 1.19140625 -0.17578125 2.5390625 t-0.47852 2.6855 t-0.68359 2.6074 t-0.78125 2.3438 t-0.79102 1.8652 t-0.70313 1.1816 q0.25390625 0.8984375 0.60546875 1.669921875 t0.79102 1.3477 t0.94727 0.9082 t1.0938 0.33203 q0.68359375 0 1.357421875 -0.576171875 t1.25 -1.3672 t1.0156 -1.6016 t0.63477 -1.2891 t0.68359 -0.47852 q0.33203125 0 0.537109375 0.234375 t0.20508 0.50781 q0 0.13671875 -0.05859375 0.2734375 l-0.27344 0.625 q-0.234375 0.48828125 -0.595703125 1.1328125 t-0.83984 1.3574 t-1.0742 1.2988 t-1.2793 0.97656 t-1.4453 0.39063 q-1.34765625 0 -2.421875 -0.87890625 t-1.8262 -2.4609 t-1.1426 -3.75 t-0.39063 -4.7461 q0 -0.64453125 0.01953125 -1.513671875 t0.078125 -1.8359 t0.17578 -1.9922 t0.3125 -2.002 l-7.0117 0 q-0.3125 0 -0.52734375 -0.185546875 t-0.21484 -0.49805 t0.21484 -0.49805 t0.52734 -0.18555 l7.3438 0 q0.1953125 -0.703125 0.458984375 -1.2890625 t0.60547 -1.0156 t0.76172 -0.67383 t0.91797 -0.24414 t0.85938 0.24414 t0.61523 0.67383 t0.40039 1.0156 t0.22461 1.2891 l9.9805 0 q0.3125 0 0.52734375 0.185546875 t0.21484 0.49805 z M94.9805 32.6172 q0.5859375 -1.2890625 1.064453125 -2.783203125 t0.82031 -3.0176 t0.52734 -2.9883 t0.18555 -2.6953 l-2.3047 0 q-0.2734375 1.2109375 -0.439453125 2.998046875 t-0.16602 4.3457 q0 1.42578125 0.078125 2.392578125 t0.23438 1.748 z M96.7969 18.008 q-0.17578125 0 -0.5078125 0.380859375 t-0.66406 1.377 l1.875 0 q-0.09765625 -0.8203125 -0.283203125 -1.2890625 t-0.41992 -0.46875 z M95.293 34.0234 l0 0.019531 l0 -0.019531 z"></path></g><g id="SvgjsG1319" featureKey="sloganFeature-0" transform="matrix(0.8186681215547774,0,0,0.8186681215547774,78.50486668192758,106.90665939222612)" fill="#970747"><path d="M10.176 20 l-4.3848 -5.9961 l-1.0352 0 l0 5.9961 l-2.9297 0 l0 -14.111 l2.9297 0 l0 5.5469 l0.99609 0 l4.4238 -5.5469 l3.5742 0 l-5.4688 6.748 l5.6348 7.3633 l-3.7402 0 z M21.572253125 9.766 c2.4121 0 3.7402 1.25 3.7402 3.4766 l0 6.7578 l-2.8223 0 l0 -6.1523 c0 -1.3379 -0.83008 -1.8262 -1.7969 -1.8262 c-1.1621 0 -2.2168 0.58594 -2.2363 2.4414 l0 5.5371 l-2.8125 0 l0 -10.039 l2.8125 0 l0 1.1133 c0.70313 -0.83008 1.7871 -1.3086 3.1152 -1.3086 z M32.71483125 20.19531 c-3.1934 0 -5.498 -1.9434 -5.498 -5.2246 c0 -3.2617 2.2852 -5.2051 5.498 -5.2051 c3.2324 0 5.5078 1.9434 5.5078 5.2051 c0 3.2813 -2.2852 5.2246 -5.5078 5.2246 z M32.68553125 17.959 c1.6309 0 2.7441 -1.1914 2.7441 -2.9883 s-1.1133 -2.9883 -2.7441 -2.9883 c-1.5723 0 -2.6758 1.1914 -2.6758 2.9883 s1.1035 2.9883 2.6758 2.9883 z M52.949421875 9.961 l2.9102 0 l-3.5156 10.049 l-2.6074 0 l-2.3242 -6.6309 l-2.3438 6.6309 l-2.6465 0 l-3.4473 -10.049 l2.9004 0 l2.0703 6.5332 l2.373 -6.5332 l2.1582 0 l2.3633 6.5137 z M57.421896875 20 l0 -15 l2.8418 0 l0 15 l-2.8418 0 z M72.61675 14.834 l-0.029297 0.67383 l-7.4414 0 c0.11719 1.6699 1.2305 2.4707 2.5684 2.4707 c1.0059 0 1.7871 -0.46875 2.168 -1.3574 l2.5781 0.38086 c-0.66406 2.0313 -2.4707 3.1934 -4.7266 3.1934 c-3.2422 0 -5.3613 -1.9141 -5.3613 -5.2148 s2.1777 -5.2344 5.2734 -5.2344 c2.8418 0 4.9609 1.5723 4.9707 5.0879 z M67.66605 11.7383 c-1.2793 0 -2.168 0.5957 -2.4414 1.9336 l4.6094 0 c-0.14648 -1.2793 -1.0156 -1.9336 -2.168 -1.9336 z M81.87498125 5 l2.8125 0 l0 15 l-2.666 0 l-0.068359 -1.3086 c-0.57617 0.98633 -1.7871 1.543 -3.1543 1.543 c-2.6465 0 -4.834 -1.9531 -4.834 -5.2344 s2.1973 -5.2344 4.834 -5.2344 c1.3184 0 2.4805 0.49805 3.0762 1.4063 l0 -6.1719 z M79.44338125 17.9004 c1.4941 0 2.6563 -1.1426 2.6563 -2.9004 s-1.1719 -2.9102 -2.6563 -2.9102 c-1.4941 0 -2.666 1.1035 -2.666 2.9102 c0 1.7969 1.1719 2.9004 2.666 2.9004 z M94.511678125 9.961 l2.6758 0 l0 9.2871 c0 3.9063 -2.1191 5.4883 -5.3223 5.4883 c-2.8809 0 -4.4434 -1.2109 -5.1758 -3.1152 l2.334 -0.99609 c0.56641 1.2988 1.3867 1.9238 2.7344 1.9238 c1.7773 0 2.6074 -1.1133 2.6074 -3.0957 l0 -1.1719 c-0.58594 0.80078 -1.7383 1.3672 -3.0469 1.3672 c-2.4902 0 -4.5801 -1.9629 -4.5801 -4.9609 c0 -3.0078 2.0996 -4.9219 4.5996 -4.9219 c1.4063 0 2.5586 0.625 3.1055 1.5234 z M92.040978125 17.373 c1.4648 0 2.5977 -1.1914 2.5977 -2.6855 c0 -1.5039 -1.1133 -2.6953 -2.5977 -2.6953 c-1.4746 0 -2.5879 1.1426 -2.5879 2.6953 c0 1.5332 1.1328 2.6855 2.5879 2.6855 z M109.55034375 14.834 l-0.029297 0.67383 l-7.4414 0 c0.11719 1.6699 1.2305 2.4707 2.5684 2.4707 c1.0059 0 1.7871 -0.46875 2.168 -1.3574 l2.5781 0.38086 c-0.66406 2.0313 -2.4707 3.1934 -4.7266 3.1934 c-3.2422 0 -5.3613 -1.9141 -5.3613 -5.2148 s2.1777 -5.2344 5.2734 -5.2344 c2.8418 0 4.9609 1.5723 4.9707 5.0879 z M104.59964375 11.7383 c-1.2793 0 -2.168 0.5957 -2.4414 1.9336 l4.6094 0 c-0.14648 -1.2793 -1.0156 -1.9336 -2.168 -1.9336 z M118.3202875 8.457 c-0.88867 0 -1.6309 -0.72266 -1.6309 -1.6211 c0 -0.88867 0.74219 -1.6113 1.6309 -1.6113 c0.86914 0 1.6113 0.72266 1.6113 1.6113 c0 0.89844 -0.74219 1.6211 -1.6113 1.6211 z M116.8847875 20 l0 -10.039 l2.832 0 l0 10.039 l-2.832 0 z M126.162075 20.19531 c-2.2559 0 -4.0039 -0.88867 -4.3652 -2.793 l2.3535 -0.66406 c0.30273 1.0742 1.0645 1.4941 2.0117 1.4941 c0.69336 0 1.4453 -0.21484 1.4258 -1.0059 c-0.0097656 -1.0449 -1.5918 -1.1328 -3.1836 -1.6992 c-1.2012 -0.41992 -2.3535 -1.0645 -2.3535 -2.7539 c0 -2.0605 1.709 -3.0078 3.9355 -3.0078 c1.9531 0 3.584 0.74219 3.9746 2.6563 l-2.1777 0.48828 c-0.30273 -0.9375 -0.9668 -1.2695 -1.7871 -1.2695 c-0.74219 0 -1.377 0.26367 -1.377 0.88867 c0 0.79102 1.1621 0.94727 2.4219 1.2891 c1.5527 0.41992 3.252 1.0938 3.252 3.2422 c0 2.3047 -1.9629 3.1348 -4.1309 3.1348 z M143.7499875 5.888999999999999 c2.7637 0 4.4824 2.0508 4.4824 4.5605 c0 2.5684 -1.7188 4.4922 -4.4824 4.4922 l-2.9395 0 l0 5.0586 l-2.9297 0 l0 -14.111 l5.8691 0 z M143.2616875 12.4902 c1.4648 0 2.1484 -0.81055 2.1484 -2.0801 c0 -1.2207 -0.68359 -2.0703 -2.1484 -2.0703 l-2.4512 0 l0 4.1504 l2.4512 0 z M154.9999875 20.19531 c-3.1934 0 -5.498 -1.9434 -5.498 -5.2246 c0 -3.2617 2.2852 -5.2051 5.498 -5.2051 c3.2324 0 5.5078 1.9434 5.5078 5.2051 c0 3.2813 -2.2852 5.2246 -5.5078 5.2246 z M154.9706875 17.959 c1.6309 0 2.7441 -1.1914 2.7441 -2.9883 s-1.1133 -2.9883 -2.7441 -2.9883 c-1.5723 0 -2.6758 1.1914 -2.6758 2.9883 s1.1035 2.9883 2.6758 2.9883 z M175.234578125 9.961 l2.9102 0 l-3.5156 10.049 l-2.6074 0 l-2.3242 -6.6309 l-2.3438 6.6309 l-2.6465 0 l-3.4473 -10.049 l2.9004 0 l2.0703 6.5332 l2.373 -6.5332 l2.1582 0 l2.3633 6.5137 z M189.149953125 14.834 l-0.029297 0.67383 l-7.4414 0 c0.11719 1.6699 1.2305 2.4707 2.5684 2.4707 c1.0059 0 1.7871 -0.46875 2.168 -1.3574 l2.5781 0.38086 c-0.66406 2.0313 -2.4707 3.1934 -4.7266 3.1934 c-3.2422 0 -5.3613 -1.9141 -5.3613 -5.2148 s2.1777 -5.2344 5.2734 -5.2344 c2.8418 0 4.9609 1.5723 4.9707 5.0879 z M184.199253125 11.7383 c-1.2793 0 -2.168 0.5957 -2.4414 1.9336 l4.6094 0 c-0.14648 -1.2793 -1.0156 -1.9336 -2.168 -1.9336 z M193.984384375 11.5527 c0.50781 -0.88867 1.8262 -1.709 3.2813 -1.709 l0 2.5098 c-2.1289 0 -3.1445 0.625 -3.1445 2.7539 l0 4.8926 l-2.832 0 l0 -10.039 l2.6953 0 l0 1.5918 z"></path></g>
			</g>
		</svg>
	